<?xml version="1.0" encoding="utf-8"?>
<!-- Generator: Adobe Illustrator 27.3.1, SVG Export Plug-In . SVG Version: 6.00 Build 0)  -->
<svg version="1.1" id="Layer_1" xmlns="http://www.w3.org/2000/svg" xmlns:xlink="http://www.w3.org/1999/xlink" x="0px"
	y="0px" viewBox="0 0 169.9 24" style="enable-background:new 0 0 169.9 24;" xml:space="preserve">
	<style>
		.bxi-fill-primary {
			fill: #002AEC;
		}
	</style>
	<g>
		<g>
			<defs>
				<rect id="SVGID_1_" x="40.2" y="2.2" width="20" height="20" />
			</defs>
			<clipPath id="SVGID_00000164515984076948455300000008808108932688792221_">
				<use xlink:href="#SVGID_1_" style="overflow:visible;" />
			</clipPath>
			<g style="clip-path:url(#SVGID_00000164515984076948455300000008808108932688792221_);">
				<path class="bxi-fill-primary"
					d="M50.2,2.2c-1.5,0-3,0.3-4.2,0.9l0,0c-0.1,0.1-0.3,0.1-0.4,0.2l0,0c0,0,0,0-0.1,0l0,0c-0.1,0-0.1,0.1-0.2,0.1
				l0,0c-0.1,0-0.2,0.1-0.2,0.1l0,0l0.1-0.1l-0.1,0.1l0,0c0,0,0,0-0.1,0l0,0c0,0-0.1,0-0.1,0.1l0,0l0,0l0,0l0,0l0,0l0,0l0,0
				l-0.1,0.1c0,0,0.1,0,0.1-0.1c0,0-0.1,0-0.1,0.1l0,0l0,0l0,0l0,0l0,0l0,0l0,0c-0.3,0.2-0.5,0.4-0.8,0.6l0,0
				c-2.3,1.8-3.8,4.6-3.8,7.8c0,5.5,4.5,10,10,10s10-4.5,10-10C60.2,6.7,55.7,2.2,50.2,2.2z M57.3,5.5C57.4,5.6,57.4,5.6,57.3,5.5
				c-0.2,0.1-0.2-0.1-0.4,0C57,5.7,57.1,6,57.3,5.8c0,0.1,0.1,0,0.2-0.1c1.4,1.6,2.3,3.7,2.4,6c-0.1,0-0.2,0-0.4,0
				c0.6,0.9-0.7,1.3-1.2,1.7c0.2,0.4,0.5-0.1,0.7,0.1c-0.1,0.9-0.7,1.3-1.2,1.8c0,0.7,0,0.9,0,1.6c-0.9,0.6-1,2.6-2.5,2.4
				c-0.2-0.7-0.3-1.6-0.6-2.2c0.6-0.9-0.3-1.5-0.2-2.6c-0.1-0.2-0.5-0.1-0.5-0.4c-0.6,0.2-1,0.1-1.6,0.2c-0.4-0.2-0.6-0.7-0.9-1
				c0.3-0.9-0.2-1.8,0.8-2.2c0-1.1,1.7-1.3,2.4-1c0,0.1,0,0.2,0,0.4c0.4,0.1,0.5,0.3,0.8,0.5c0-0.2,0.1-0.3,0.3-0.4
				c0.3,0.2,0.2,0.4,0.6,0.3c0.2,0.1,0.5-0.1,0.6,0.1c0.1-0.1,0.1-0.3,0.2-0.5c-0.1-0.3-0.6-0.2-0.8-0.4c-0.1-0.1-0.1-0.4,0-0.6
				c-0.6,0-0.1,0.4-0.5,0.6c-0.1,0-0.1,0-0.2,0c0.1-0.3-0.1-0.3-0.2-0.5c-0.3,0-0.4,0.6-0.6,0.3c0.7-0.1-0.4-0.9-0.5-0.6
				c0-0.1,0-0.3-0.1-0.4C54,9,53.8,9.2,53.5,9.4c0,0.1,0,0.2,0,0.4c-0.1,0-0.2,0.1-0.2,0.2c-0.3,0-0.6,0-0.8,0
				c0-0.1-0.1-0.1-0.1-0.3c0.1-0.2,0-0.7,0.3-0.7c0.3-0.1,0.5,0.3,0.6,0h0.1c0-0.3-0.2-0.4-0.3-0.6c0-0.2,0.3-0.1,0.3-0.3
				c0.8,0,0.8-0.9,1.3-1.2c-0.1,0.1-0.1,0.2-0.1,0.5c0.3,0.1,0.2-0.5,0.1-0.6c-0.2,0-0.4,0-0.5,0.1c-0.1-0.1-0.1-0.4-0.2-0.6
				c0.6-0.5,0.8-1.5,1.8-1.6c0.3,0.1,0.6,0.2,0.8,0.3C57,5.2,57.2,5.3,57.3,5.5z M53.2,6.6c0.5,0.1,0.3,0.8,0.7,1c0,0.1,0,0.1,0,0.2
				c-0.2,0-0.2,0.2-0.5,0.1C53.2,7.9,53.2,8,53,8C53.5,7.5,53,7.1,53.2,6.6z M53.1,7.7c-0.2,0-0.3,0-0.5,0c0-0.3,0.1-0.5,0.4-0.6
				C53.1,7.3,53.1,7.5,53.1,7.7z M51.6,5.8c-0.1-0.2-0.3-0.3-0.3-0.6c0.4,0.1,0.6,0.1,0.9,0c0,0.1,0.1,0.1,0.1,0.2
				C52.4,5.8,52,5.8,51.6,5.8z M51.1,6.3c-0.1,0.4-0.6,0.5-0.9,0.6c-0.1,0-0.1-0.1,0-0.1c0-0.2-0.3-0.1-0.4-0.2
				C49.7,5.6,51.2,5.3,51.1,6.3z M58.1,17.9c-0.2-0.7,0.3-1,0.6-1.6c0.3,0.2-0.1,0.6-0.1,0.8c-0.1,0.2-0.2,0.3-0.3,0.5l0,0
				C58.2,17.7,58.1,17.8,58.1,17.9z M51.7,2.5L51.7,2.5c0,0,0.1,0,0.2,0c0.2,0,0.3,0.1,0.5,0.1c-0.1,0.1-0.2,0.2-0.4,0.3
				c-0.1,0.3,0.1,0.3,0.1,0.6c-0.2,0-0.2-0.1-0.3,0c0.3,0.4-0.5,0.8,0,1.1c-0.7,0.3-1.6,0.4-2,1c-0.2,0.2-0.3,0.6-0.6,0.7
				c-0.7-0.2-0.8-1.3-0.6-1.7c0,0,0,0,0-0.1c0,0,0,0,0,0.1c0,0-0.1,0-0.2-0.1c0.4-1.2-1.1-0.9-1.3-1.6c0.2-0.1,0.6,0,0.6-0.3l0,0
				c0.8-0.2,1.6-0.3,2.5-0.3C50.7,2.4,51.2,2.4,51.7,2.5z M45.6,3.6c0.2,0.1,0.3,0.1,0.6-0.1c-0.1,0-0.3,0-0.4,0
				c0.4-0.2,0.9-0.4,1.4-0.6c-0.4,0.2-0.6,0.5-0.8,0.8c-0.4,0-0.8,0.1-1,0C45.4,3.7,45.5,3.6,45.6,3.6z M45.1,3.8c0,0,0.1,0.1,0.2,0
				C45.2,4,45,4.1,44.7,4.2C44.8,4.1,44.8,4,44.8,4C44.9,3.9,45,3.9,45.1,3.8z M44,4.6C44.1,4.6,44.1,4.6,44,4.6
				c0,0.3-0.3,0.2-0.4,0.4c0.6,0.2,0.6-0.6,1-0.1c0-0.2-0.2-0.2-0.1-0.5c0.1,0,0.1-0.1,0.3-0.1c0,0.5,0.3,0.3,0.5,0.6
				c0-0.1,0.1-0.1,0.2-0.2c0.1-0.3-0.3-0.1-0.3-0.5c0-0.5,0.8-0.3,1.1-0.5c0,0.2,0.3,0.1,0.3,0.2c-0.1,0-0.7,0-0.4,0.1
				c0.9-0.1,0.9,0.6,1.5,1.1c-0.2,0-0.2,0.1-0.3,0.2c-0.1,0-0.3-0.4-0.4-0.1c0.2,0,0.2,0.2,0.2,0.5c-0.5-0.2-0.1,0-0.3,0.2
				c-0.3-0.2-0.6-0.4-1-0.6c0.2-0.1,0.5-0.1,0.6-0.4c0.1-0.3-0.3-0.2-0.2-0.5c-0.1,0-0.8,0-0.5,0.1c0.1,0.4-0.3,0.4-0.4,0.6
				c0.1,0.1,0.3,0.1,0.3,0.4c-0.1,0-0.1-0.1-0.3-0.1c-0.1,0-0.1,0.2,0,0.2c0,0.2-0.4,0-0.4-0.3c-0.4,0.1-0.7,0.5-0.9,0.8
				c0.1,0.4,0.4,0.4,0.7,0.6c0.1,0,0.2,0.1,0.3,0.1c-0.1,0.3,0.1,0.3,0.1,0.6c0.3-0.7,0.6-0.6,0.6-1.8c0.1,0,0.1,0,0.1-0.1
				c0.1,0,0.2,0.2,0.6,0.2c0.2,0.1,0,0.6,0.4,0.6C47.2,6.4,47,6,47.3,6.1c0.3,0.9,0.8,1.3,0.9,2.1c-0.3,0.1-0.3-0.1-0.6-0.1
				c-0.3,0.1-0.2-0.3-0.1-0.4c0.1-0.1,0.2-0.1,0.3-0.3c-0.3,0.1-0.6,0.6-0.9,0.2c0.1,0.3-0.1,0.2-0.1,0.5c0,0.1,0,0.1,0.1,0.1
				s0.2,0,0.2,0.1v0.1c-0.4,0.3-1.6,0.6-1.8,1.7c-0.3,0-0.3,0.2-0.5,0.4c-0.2,0.1,0.2,0.6-0.1,0.8c-0.2-0.1-0.3-0.4-0.4-0.6
				c-0.8-0.5-2.4,1.1-0.9,1.4h0.1c0-0.3,0.5-0.4,0.6-0.1c-0.1,0.1-0.2,0.2-0.2,0.5c0,0.2,0.3,0,0.5,0.1c0,0.4-0.2,0.8,0.3,0.8
				c0.1,0,0.2,0,0.2,0.1c0.4,0,0.4-0.4,0.7-0.5c0.2,0.2,0.6,0.3,1.2,0.3c0.1,0.6,0.8,0.6,1.2,0.9c0,0.2,0,0.3,0,0.5
				c0.7,0.2,1.1,0.5,1.8,0.7c-0.1,0.9-0.7,1.2-0.6,2.2c-0.2,0.1-0.5,0.2-0.7,0.4c-0.1,0.6-0.5,1.3-1,1.2c0,0.2,0.2,0.2,0.1,0.5
				c-0.9,0.3-0.7,0.8-0.9,1.6c-0.2-0.1-0.5-0.2-0.7-0.3c-0.4-0.7,0.2-2,0-3.4c-0.2-1-1.6-1.6-1.4-2.8c0.2-0.2,0.4-0.4,0.5-0.6
				c-0.7-1-2-1.3-2.9-2c0-0.5-0.2-0.8-0.5-1c0,0.3,0.2,0.4,0.2,0.6c-0.6-0.6-0.9-1.6-0.9-2.6C41.4,7.4,42.6,5.7,44,4.6z M45.9,12.1
				c0,0.4-0.3,0.2-0.6,0.2C45.5,12.2,45.7,12.1,45.9,12.1z M44.3,11.8c0.2-0.4,0.9,0.2,1.1,0.4C44.9,12.2,44.8,11.7,44.3,11.8z" />
			</g>
		</g>
	</g>
	<path d="M40.8,15c0.3-0.2,0.4-0.6,0.2-0.9s-0.6-0.4-0.9-0.2L40.8,15z M66.1,7.6l-7.4-0.2l3.5,6.5L66.1,7.6z M40.1,13.9
	c-1.3,0.7-2.3,1.4-3.1,2.1c-0.8,0.7-1.4,1.3-1.8,1.9c-0.3,0.5-0.6,1.3-0.1,1.9c0.2,0.3,0.5,0.4,0.8,0.5s0.7,0.1,1.1,0.1
	c1.7,0,4.4-0.7,8.4-2.1c4-1.5,9.2-3.9,15.9-7.4l-0.6-1.1c-6.6,3.5-11.8,5.8-15.7,7.3s-6.5,2.1-7.9,2.1c-0.3,0-0.6,0-0.8-0.1
	c-0.2,0-0.2-0.1-0.2-0.1c0,0.1-0.1,0,0.2-0.4c0.2-0.4,0.7-0.9,1.5-1.5s1.7-1.3,3-2L40.1,13.9z" />
	<path
		d="M79,14.9h2c-0.1,1-0.4,1.8-0.8,2.6c-0.4,0.8-1.1,1.4-1.9,1.8s-1.8,0.7-3,0.7c-0.9,0-1.7-0.2-2.4-0.5
	c-0.7-0.3-1.3-0.8-1.9-1.4c-0.5-0.6-0.9-1.4-1.2-2.2c-0.3-0.9-0.4-1.8-0.4-2.9v-1.6c0-1.1,0.1-2,0.4-2.9s0.7-1.6,1.2-2.2
	s1.2-1.1,1.9-1.4c0.7-0.3,1.6-0.5,2.5-0.5c1.1,0,2.1,0.2,2.9,0.6c0.8,0.4,1.4,1,1.8,1.8s0.7,1.6,0.8,2.6h-2
	c-0.1-0.7-0.3-1.3-0.5-1.8c-0.3-0.5-0.6-0.9-1.1-1.2C76.8,6.1,76.2,6,75.4,6c-0.7,0-1.3,0.1-1.8,0.4S72.7,7,72.3,7.5
	c-0.3,0.5-0.6,1-0.8,1.7s-0.3,1.4-0.3,2.2v1.5c0,0.7,0.1,1.4,0.2,2.1c0.2,0.7,0.4,1.2,0.7,1.7c0.3,0.5,0.7,0.9,1.2,1.2
	c0.5,0.3,1.1,0.4,1.7,0.4c0.9,0,1.5-0.1,2-0.4s0.9-0.7,1.1-1.2C78.7,16.2,78.9,15.6,79,14.9z M95.4,11.7v1c0,1.1-0.1,2.2-0.4,3.1
	c-0.3,0.9-0.7,1.7-1.2,2.3c-0.5,0.6-1.2,1.1-1.9,1.4c-0.7,0.3-1.6,0.5-2.5,0.5s-1.7-0.2-2.5-0.5c-0.7-0.3-1.4-0.8-1.9-1.4
	s-1-1.4-1.3-2.3c-0.3-0.9-0.4-1.9-0.4-3.1v-1c0-1.1,0.1-2.2,0.4-3C84,7.8,84.4,7,85,6.4c0.5-0.6,1.2-1.1,1.9-1.5
	c0.7-0.3,1.6-0.5,2.5-0.5s1.8,0.2,2.5,0.5s1.4,0.8,1.9,1.5c0.5,0.6,1,1.4,1.2,2.3C95.3,9.5,95.4,10.5,95.4,11.7z M93.4,12.6v-1
	c0-0.9-0.1-1.7-0.3-2.4c-0.2-0.7-0.4-1.3-0.8-1.7C91.9,7,91.5,6.7,91,6.4C90.5,6.2,89.9,6,89.3,6s-1.2,0.1-1.7,0.4
	c-0.5,0.2-0.9,0.6-1.3,1.1s-0.6,1.1-0.8,1.7c-0.2,0.7-0.3,1.5-0.3,2.4v1c0,0.9,0.1,1.7,0.3,2.4c0.2,0.7,0.5,1.3,0.8,1.8
	c0.4,0.5,0.8,0.8,1.3,1.1c0.5,0.2,1.1,0.4,1.7,0.4c0.7,0,1.2-0.1,1.7-0.4c0.5-0.2,0.9-0.6,1.3-1.1s0.6-1.1,0.8-1.8
	C93.3,14.3,93.4,13.5,93.4,12.6z M99,4.6h1.9l5,12.3l5-12.3h2l-6.2,15.1h-1.5L99,4.6z M98.4,4.6h1.7l0.3,9.2v5.9h-2V4.6z M111.8,4.6
	h1.7v15.1h-2v-5.9L111.8,4.6z M122.6,13.8h-4v-1.6h4c0.8,0,1.4-0.1,1.9-0.4c0.5-0.2,0.8-0.6,1.1-1c0.2-0.4,0.3-0.9,0.3-1.5
	c0-0.5-0.1-1-0.3-1.5S125,7,124.5,6.7c-0.5-0.3-1.1-0.4-1.9-0.4H119v13.5h-2V4.6h5.6c1.1,0,2.1,0.2,2.9,0.6s1.4,0.9,1.8,1.6
	c0.4,0.7,0.6,1.5,0.6,2.4c0,1-0.2,1.8-0.6,2.5s-1,1.2-1.8,1.6C124.7,13.6,123.7,13.8,122.6,13.8z M134.6,5.9l-5,13.8h-2l5.8-15.1
	h1.3L134.6,5.9z M138.8,19.7l-5-13.8V4.6h1.3l5.8,15.1H138.8z M138.6,14.1v1.6h-8.5v-1.6H138.6z M154.6,4.6v15.1h-2L145,8v11.7h-2
	V4.6h2l7.7,11.7V4.6H154.6z M158.5,4.6l3.9,7.6l3.9-7.6h2.3l-5.2,9.5v5.7h-2v-5.7l-5.2-9.5C156.2,4.6,158.5,4.6,158.5,4.6z" />
	<path class="bxi-fill-primary" d="M2.2,20V4.8h7c1.1,0,2,0.2,2.8,0.5c0.8,0.3,1.3,0.7,1.7,1.3c0.4,0.6,0.6,1.2,0.6,1.9c0,0.9-0.2,1.7-0.6,2.3
	c-0.4,0.6-1,1-1.8,1.2l-0.1-0.4c0.7,0.2,1.2,0.4,1.7,0.8c0.5,0.3,0.9,0.8,1.2,1.3c0.3,0.5,0.4,1.1,0.4,1.7c0,0.8-0.1,1.5-0.4,2.1
	S14,18.6,13.5,19s-1.1,0.7-1.8,0.9c-0.7,0.2-1.4,0.3-2.2,0.3H2.2V20z M6.6,16.3h2.7c0.3,0,0.5,0,0.7-0.1s0.3-0.2,0.4-0.4
	c0.1-0.2,0.2-0.4,0.2-0.7c0-0.2-0.1-0.4-0.2-0.6c-0.1-0.2-0.3-0.3-0.5-0.4s-0.5-0.2-0.8-0.2H6.5v2.4H6.6z M6.6,10.8h1.8
	c0.3,0,0.6,0,0.8-0.1s0.4-0.2,0.5-0.4c0.1-0.2,0.2-0.4,0.2-0.6c0-0.3-0.1-0.6-0.3-0.8C9.4,8.7,9,8.6,8.5,8.6H6.7L6.6,10.8L6.6,10.8z
	" />
	<path class="bxi-fill-primary" d="M25.6,20l-4.7-6.8l-6-8.4h5.6l4.6,6.7l6.1,8.5C31.2,20,25.6,20,25.6,20z M25.4,13l-4.1-1.7l2.9-3.8
	c1.8-2.3,4.5-3.7,7.4-3.7L25.4,13z" />
	<path class="bxi-fill-primary" d="M20.5,11.8l4.1,1.7l-3.2,4.2c-1.6,2.1-4.1,3.3-6.7,3.3h-0.4L20.5,11.8z" />
</svg>